# xmcd
#
# Track frame offsets:
#	150
#	14388
#	28382
#	41798
#	53319
#	67766
#	81997
#	98861
#	115439
#	127475
#	142953
#	154272
#
# Disc length: 2223 seconds
#
# Revision: 0
# Processed by: cddbd v1.5.1PL2 Copyright (c) Steve Scherf et al.
# Submitted via: EasyCDDAExtractor 8.2.3.1
#
DISCID=a608ad0c
DTITLE=Jacó e Jacózinho - Os reis do lari larai
DYEAR=1967
DGENRE=Sertanejo
TTITLE0=Florzinha do campo
TTITLE1=Pula pula
TTITLE2=Conselho de um ladrão
TTITLE3=Tira e põe
TTITLE4=Suspirando
TTITLE5=A viola do Zé
TTITLE6=Chave do apartamento
TTITLE7=Ladrão de terra
TTITLE8=A mulher e a viola
TTITLE9=Carteiro
TTITLE10=Tudo sai
TTITLE11=Pura verdade
EXTD=
EXTT0=
EXTT1=
EXTT2=
EXTT3=
EXTT4=
EXTT5=
EXTT6=
EXTT7=
EXTT8=
EXTT9=
EXTT10=
EXTT11=
PLAYORDER=
